# xmcd CD database file generated by Grip 3.2.0
# 
# Track frame offsets:
#       150
#       11817
#       27120
#       40352
#       52375
#       64215
#       76655
#       89550
#       101997
#       113882
#       126362
#       137755
#       150252
#       161882
#       175190
#       186647
#       200127
#       212445
#       224395
#       236527
# 
# Disc length: 3341 seconds
# 
# Revision: 3
# Processed by: cddbd v1.5.2PL0 Copyright (c) Steve Scherf et al.
# Submitted via: Grip 3.2.0
# 
DISCID=2c0d0b14
DTITLE=Spade Cooley - Spadella! The Essential Spade Cooley
DYEAR=1994
DGENRE=Other
TTITLE0=Trouble Over You
TTITLE1=Oklahoma Stomp
TTITLE2=You Can't Break My Heart
TTITLE3=Detour
TTITLE4=Crazy 'Cause I Love You
TTITLE5=Swingin' the Devil's Dream
TTITLE6=Shame On You
TTITLE7=Forgive Me One More Time
TTITLE8=You Better Do It Now
TTITLE9=Steel Guitar Rag
TTITLE10=You'll Rue The Day
TTITLE11=You Never Miss the Water (Till The Well Runs Dry)
TTITLE12=I Guess I've Been Dreaming Again
TTITLE13=A Pair Of Broken Hearts
TTITLE14=Cow Bell Polka
TTITLE15=Hide Your Face
TTITLE16=I Can't Help The Way You Feel
TTITLE17=I've Taken All I'm Gonna Take From You
TTITLE18=Three Way Boogie
TTITLE19=Spadella
EXTD=Recorded 1944-12-04/1946-06-06.\nCD: Columbia/Legacy CK 57392 (1994),U
EXTD=PC 074645739229.
EXTT0=
EXTT1=Instrumental
EXTT2=previously unissued alternate version
EXTT3=
EXTT4=
EXTT5=instrumental
EXTT6=
EXTT7=
EXTT8=
EXTT9=instrumental
EXTT10=
EXTT11=
EXTT12=
EXTT13=
EXTT14=instrumental
EXTT15=
EXTT16=
EXTT17=
EXTT18=instrumental
EXTT19=instrumental
PLAYORDER=
